<svg xmlns="http://www.w3.org/2000/svg" viewBox="80 50 360 390">
  <g transform="matrix(1.3333333,0,0,-1.3333333,0,483.508)">
    <g>
      <g transform="translate(244.272,242.0925)">
        <path style="fill:#ffffff;fill-opacity:1;fill-rule:nonzero;stroke:none"
          d="m 0,0 c 14.837,5.757 50.774,18.614 58.629,-24.805 0,0 -56.491,0.411 -60.884,-38.334 -4.546,-40.088 -54.045,-56.45 -87.945,-22.55 -8.943,8.943 -18.489,16.506 -41.614,12.381 -4.629,-0.826 0.945,0.428 -10.112,-1.947 0,0 -10.763,-1.595 -19.121,9.177 z" />
      </g>
      <g transform="translate(302.8293,198.1117)">
        <path style="fill:#ffffff;fill-opacity:1;fill-rule:nonzero;stroke:none"
          d="m 0,0 c -0.118,0 -11.953,-0.045 -23.52,-3.938 -16.913,-5.692 -17.876,-14.184 -18.238,-17.381 -0.533,-4.701 -1.549,-9.213 -2.968,-13.511 -0.262,-0.88 -0.529,-1.76 -0.82,-2.637 -2.905,-8.74 -7.212,-16.602 -12.911,-23.587 -5.707,-6.992 -12.703,-12.594 -20.984,-16.804 -8.286,-4.216 -17.81,-6.322 -28.568,-6.322 -10.547,0 -19.965,2.054 -28.247,6.167 -8.286,4.111 -15.282,9.558 -20.981,16.343 -1.506,1.79 -2.912,3.656 -4.23,5.589 -0.282,0.275 -0.571,0.534 -0.85,0.813 -3.789,3.789 -8.512,6.823 -13.583,7.5 -8.544,1.141 -20.286,-2.109 -34.778,-7.012 5.28,-12.152 12.423,-23.041 21.481,-32.637 9.791,-10.383 21.518,-18.707 35.187,-24.976 13.663,-6.272 28.891,-9.403 45.678,-9.403 16.139,0 31.096,3.03 44.87,9.096 13.771,6.061 25.607,14.183 35.51,24.358 9.895,10.176 17.642,21.892 23.241,35.15 5.594,13.26 8.393,27.183 8.393,41.78 0,3.813 -0.215,7.61 -0.627,11.392 z" />
      </g>
      <g transform="translate(133.757,217.8338)">
        <path style="fill:#ffffff;fill-opacity:1;fill-rule:nonzero;stroke:none"
          d="m 0,0 c 2.813,7.195 6.588,13.728 11.35,19.587 5.594,6.884 12.588,12.435 20.982,16.649 8.393,4.212 17.967,6.322 28.731,6.322 10.329,0 19.636,-2.004 27.922,-6.012 0.062,-0.03 0.12,-0.064 0.182,-0.094 5.399,2.155 10.263,4.075 14.412,5.685 9.718,3.771 21.373,7.625 34.126,7.625 0.007,0 0.015,0 0.023,0 -8.772,8.463 -18.987,15.475 -30.664,21.009 -13.669,6.475 -28.788,9.711 -45.355,9.711 -16.141,0 -31.102,-3.034 -44.872,-9.095 C 3.062,65.321 -8.826,57.151 -18.833,46.873 -28.841,36.594 -36.698,24.776 -42.398,11.415 -46.848,0.989 -49.554,-9.813 -50.532,-20.987 -36.433,-15.113 -18.681,-7.731 0,0" />
      </g>
    </g>
  </g>
</svg>
