<?xml version="1.0" encoding="UTF-8" standalone="no"?>
<svg
   xmlns:dc="http://purl.org/dc/elements/1.1/"
   xmlns:cc="http://creativecommons.org/ns#"
   xmlns:rdf="http://www.w3.org/1999/02/22-rdf-syntax-ns#"
   xmlns:svg="http://www.w3.org/2000/svg"
   xmlns="http://www.w3.org/2000/svg"
   viewBox="0 0 1597.8933 483.508"
   height="483.508"
   width="1597.8933"
   xml:space="preserve"
   id="svg2"
   version="1.1"><metadata
     id="metadata8"><rdf:RDF><cc:Work
         rdf:about=""><dc:format>image/svg+xml</dc:format><dc:type
           rdf:resource="http://purl.org/dc/dcmitype/StillImage" /></cc:Work></rdf:RDF></metadata><defs
     id="defs6"><clipPath
       id="clipPath18"
       clipPathUnits="userSpaceOnUse"><path
         id="path16"
         d="M 0,362.631 H 1198.42 V 0 H 0 Z" /></clipPath></defs><g
     transform="matrix(1.3333333,0,0,-1.3333333,0,483.508)"
     id="g10"><g
       id="g12"><g
         clip-path="url(#clipPath18)"
         id="g14"><g
           transform="translate(244.272,242.0925)"
           id="g20"><path
             id="path22"
             style="fill:currentColor;fill-opacity:1;fill-rule:nonzero;stroke:none"
             d="m 0,0 c 14.837,5.757 50.774,18.614 58.629,-24.805 0,0 -56.491,0.411 -60.884,-38.334 -4.546,-40.088 -54.045,-56.45 -87.945,-22.55 -8.943,8.943 -18.489,16.506 -41.614,12.381 -4.629,-0.826 0.945,0.428 -10.112,-1.947 0,0 -10.763,-1.595 -19.121,9.177 z" /></g><g
           transform="translate(302.8293,198.1117)"
           id="g24"><path
             id="path26"
             style="fill:currentColor;fill-opacity:1;fill-rule:nonzero;stroke:none"
             d="m 0,0 c -0.118,0 -11.953,-0.045 -23.52,-3.938 -16.913,-5.692 -17.876,-14.184 -18.238,-17.381 -0.533,-4.701 -1.549,-9.213 -2.968,-13.511 -0.262,-0.88 -0.529,-1.76 -0.82,-2.637 -2.905,-8.74 -7.212,-16.602 -12.911,-23.587 -5.707,-6.992 -12.703,-12.594 -20.984,-16.804 -8.286,-4.216 -17.81,-6.322 -28.568,-6.322 -10.547,0 -19.965,2.054 -28.247,6.167 -8.286,4.111 -15.282,9.558 -20.981,16.343 -1.506,1.79 -2.912,3.656 -4.23,5.589 -0.282,0.275 -0.571,0.534 -0.85,0.813 -3.789,3.789 -8.512,6.823 -13.583,7.5 -8.544,1.141 -20.286,-2.109 -34.778,-7.012 5.28,-12.152 12.423,-23.041 21.481,-32.637 9.791,-10.383 21.518,-18.707 35.187,-24.976 13.663,-6.272 28.891,-9.403 45.678,-9.403 16.139,0 31.096,3.03 44.87,9.096 13.771,6.061 25.607,14.183 35.51,24.358 9.895,10.176 17.642,21.892 23.241,35.15 5.594,13.26 8.393,27.183 8.393,41.78 0,3.813 -0.215,7.61 -0.627,11.392 z" /></g><g
           transform="translate(133.757,217.8338)"
           id="g28"><path
             id="path30"
             style="fill:currentColor;fill-opacity:1;fill-rule:nonzero;stroke:none"
             d="m 0,0 c 2.813,7.195 6.588,13.728 11.35,19.587 5.594,6.884 12.588,12.435 20.982,16.649 8.393,4.212 17.967,6.322 28.731,6.322 10.329,0 19.636,-2.004 27.922,-6.012 0.062,-0.03 0.12,-0.064 0.182,-0.094 5.399,2.155 10.263,4.075 14.412,5.685 9.718,3.771 21.373,7.625 34.126,7.625 0.007,0 0.015,0 0.023,0 -8.772,8.463 -18.987,15.475 -30.664,21.009 -13.669,6.475 -28.788,9.711 -45.355,9.711 -16.141,0 -31.102,-3.034 -44.872,-9.095 C 3.062,65.321 -8.826,57.151 -18.833,46.873 -28.841,36.594 -36.698,24.776 -42.398,11.415 -46.848,0.989 -49.554,-9.813 -50.532,-20.987 -36.433,-15.113 -18.681,-7.731 0,0" /></g><g
           transform="translate(378.0454,195.5656)"
           id="g32"><path
             id="path34"
             style="fill:currentColor;fill-opacity:1;fill-rule:nonzero;stroke:none"
             d="m 0,0 c 6.311,-3.063 13.366,-4.616 20.968,-4.616 4.281,0 8.724,0.53 13.206,1.575 4.477,1.044 8.746,2.589 12.69,4.591 3.961,2.012 7.566,4.511 10.715,7.426 3.2,2.958 5.701,6.431 7.433,10.322 l 0.53,1.191 -1.142,0.627 -16.543,9.089 -1.365,0.75 -0.618,-1.428 c -1.093,-2.523 -2.566,-4.701 -4.377,-6.473 -1.846,-1.807 -3.878,-3.302 -6.039,-4.444 -2.167,-1.146 -4.485,-1.996 -6.89,-2.526 -2.429,-0.535 -4.79,-0.806 -7.014,-0.806 -4.253,0 -8.203,0.891 -11.74,2.649 C 6.24,19.699 3.136,22.079 0.589,25 c -2.556,2.929 -4.56,6.377 -5.958,10.248 -1.401,3.882 -2.112,7.978 -2.112,12.173 0,3.752 0.618,7.582 1.836,11.384 1.208,3.775 3.023,7.199 5.396,10.177 2.354,2.954 5.354,5.392 8.916,7.248 3.535,1.842 7.773,2.776 12.594,2.776 2.227,0 4.542,-0.249 6.883,-0.74 2.311,-0.486 4.562,-1.27 6.686,-2.328 2.095,-1.045 4.093,-2.488 5.937,-4.289 1.823,-1.788 3.404,-4.033 4.695,-6.672 l 0.707,-1.446 1.345,0.885 15.518,10.208 1.078,0.709 -0.605,1.14 C 59.977,83.113 54.547,88.572 47.368,92.699 40.2,96.814 31.614,98.9 21.847,98.9 13.582,98.9 6.094,97.399 -0.408,94.438 -6.89,91.485 -12.457,87.568 -16.956,82.794 -21.457,78.015 -24.929,72.52 -27.275,66.461 c -2.347,-6.056 -3.537,-12.274 -3.537,-18.48 0,-6.494 1.292,-12.955 3.839,-19.203 2.544,-6.241 6.133,-11.89 10.667,-16.788 C -11.768,7.081 -6.281,3.047 0,0" /></g><g
           transform="translate(495.9305,274.571)"
           id="g36"><path
             id="path38"
             style="fill:currentColor;fill-opacity:1;fill-rule:nonzero;stroke:none"
             d="m 0,0 c 4.446,0 8.499,-0.87 12.046,-2.585 3.558,-1.722 6.602,-4.07 9.049,-6.978 2.462,-2.93 4.397,-6.358 5.75,-10.188 1.355,-3.841 2.042,-7.87 2.042,-11.973 0,-3.93 -0.64,-7.85 -1.904,-11.648 -1.256,-3.779 -3.143,-7.227 -5.608,-10.249 -2.451,-3.003 -5.5,-5.443 -9.061,-7.254 -3.539,-1.8 -7.681,-2.713 -12.314,-2.713 -4.543,0 -8.641,0.891 -12.18,2.649 -3.567,1.769 -6.615,4.143 -9.061,7.054 -2.461,2.926 -4.37,6.348 -5.673,10.173 -1.31,3.836 -1.974,7.869 -1.974,11.988 0,3.928 0.64,7.848 1.904,11.649 1.257,3.781 3.12,7.206 5.538,10.181 2.399,2.952 5.444,5.367 9.052,7.178 C -8.802,-0.914 -4.632,0 0,0 m -37.851,-67.446 c 4.545,-4.82 10.062,-8.737 16.398,-11.643 6.35,-2.915 13.519,-4.393 21.307,-4.393 7.485,0 14.524,1.428 20.92,4.245 6.381,2.809 11.949,6.629 16.549,11.355 4.591,4.722 8.235,10.233 10.83,16.379 2.6,6.163 3.919,12.723 3.919,19.5 0,6.393 -1.266,12.782 -3.763,18.987 -2.495,6.195 -6.035,11.798 -10.522,16.653 -4.493,4.865 -9.984,8.854 -16.318,11.856 -6.361,3.013 -13.485,4.541 -21.176,4.541 -7.483,0 -14.522,-1.428 -20.922,-4.245 -6.385,-2.812 -11.977,-6.656 -16.621,-11.426 -4.643,-4.768 -8.335,-10.324 -10.976,-16.513 -2.649,-6.208 -3.993,-12.794 -3.993,-19.574 0,-6.493 1.266,-12.929 3.763,-19.127 2.493,-6.198 6.061,-11.781 10.605,-16.595" /></g><g
           transform="translate(544.0514,210.861)"
           id="g40"><path
             id="path42"
             style="fill:currentColor;fill-opacity:1;fill-rule:nonzero;stroke:none"
             d="m 0,0 0.094,-1.391 1.171,-17.339 0.089,-1.321 h 1.325 c 7.115,0 13.235,1.224 18.189,3.638 5.012,2.443 9.251,6.507 12.599,12.081 3.285,5.467 5.904,12.693 7.784,21.479 1.857,8.688 3.343,19.569 4.418,32.339 l 1.204,13.804 h 21.88 v -80.946 -1.417 h 1.417 20.057 1.417 v 1.417 99.284 1.417 H 90.227 27.275 25.978 L 25.863,81.753 23.375,53.786 C 22.309,42.052 21.132,32.518 19.877,25.452 18.636,18.478 17.122,13.07 15.379,9.378 13.715,5.857 11.758,3.489 9.561,2.338 7.256,1.128 4.507,0.381 1.389,0.117 Z" /></g><g
           transform="translate(698.2537,274.571)"
           id="g44"><path
             id="path46"
             style="fill:currentColor;fill-opacity:1;fill-rule:nonzero;stroke:none"
             d="m 0,0 c 4.446,0 8.499,-0.87 12.046,-2.585 3.558,-1.722 6.602,-4.07 9.049,-6.978 2.462,-2.93 4.397,-6.358 5.75,-10.188 1.355,-3.841 2.042,-7.87 2.042,-11.973 0,-3.93 -0.64,-7.85 -1.904,-11.648 -1.256,-3.779 -3.143,-7.227 -5.608,-10.249 -2.451,-3.003 -5.5,-5.443 -9.061,-7.254 -3.539,-1.8 -7.681,-2.713 -12.314,-2.713 -4.543,0 -8.641,0.891 -12.18,2.649 -3.567,1.769 -6.615,4.143 -9.061,7.054 -2.461,2.926 -4.37,6.348 -5.673,10.173 -1.31,3.836 -1.974,7.869 -1.974,11.988 0,3.928 0.64,7.848 1.904,11.649 1.257,3.781 3.12,7.206 5.538,10.181 2.399,2.952 5.444,5.367 9.052,7.178 C -8.802,-0.914 -4.632,0 0,0 m 20.774,-79.237 c 6.381,2.809 11.949,6.629 16.549,11.355 4.591,4.722 8.235,10.233 10.83,16.379 2.6,6.163 3.919,12.723 3.919,19.5 0,6.393 -1.266,12.782 -3.763,18.987 -2.495,6.195 -6.035,11.798 -10.522,16.653 -4.493,4.865 -9.984,8.854 -16.318,11.856 -6.361,3.013 -13.485,4.541 -21.176,4.541 -7.483,0 -14.522,-1.428 -20.922,-4.245 -6.385,-2.812 -11.977,-6.656 -16.621,-11.426 -4.643,-4.768 -8.335,-10.324 -10.976,-16.513 -2.649,-6.208 -3.993,-12.794 -3.993,-19.574 0,-6.493 1.266,-12.929 3.763,-19.127 2.493,-6.198 6.061,-11.781 10.605,-16.595 4.545,-4.82 10.062,-8.737 16.398,-11.643 6.35,-2.915 13.519,-4.393 21.307,-4.393 7.485,0 14.524,1.428 20.92,4.245" /></g><g
           transform="translate(815.0648,255.3488)"
           id="g48"><path
             id="path50"
             style="fill:currentColor;fill-opacity:1;fill-rule:nonzero;stroke:none"
             d="m 0,0 c -2.14,-2.001 -4.673,-2.974 -7.743,-2.974 h -25.52 v 22.196 h 26.398 c 2.851,0 5.178,-0.959 7.115,-2.932 C 2.193,14.31 3.138,11.662 3.138,8.194 3.138,4.656 2.111,1.976 0,0 m 3.933,-24.489 c 0.955,-1.079 1.73,-2.371 2.303,-3.839 0.566,-1.46 0.854,-3.005 0.854,-4.59 0,-1.567 -0.306,-3.072 -0.909,-4.474 -0.608,-1.41 -1.442,-2.648 -2.479,-3.68 -1.031,-1.027 -2.278,-1.84 -3.705,-2.418 -1.433,-0.581 -3.002,-0.876 -4.666,-0.876 h -28.594 v 23.315 h 29.62 c 1.535,0 2.955,-0.306 4.22,-0.91 1.281,-0.612 2.41,-1.462 3.356,-2.528 m -8.602,-39.072 c 4.691,0 9.178,0.582 13.334,1.729 4.192,1.159 7.934,2.874 11.121,5.099 3.238,2.256 5.821,5.098 7.676,8.445 1.866,3.367 2.813,7.315 2.813,11.734 0,6.823 -1.853,12.601 -5.507,17.176 -2.969,3.713 -6.841,6.524 -11.541,8.384 3.638,2.101 6.539,4.937 8.648,8.462 2.659,4.445 4.008,9.277 4.008,14.362 0,3.227 -0.597,6.474 -1.772,9.651 -1.179,3.179 -2.866,6.053 -5.014,8.544 -2.16,2.506 -4.817,4.571 -7.897,6.14 -3.118,1.587 -6.634,2.392 -10.452,2.392 h -55.632 -1.418 v -1.417 -99.283 -1.418 h 1.418 z" /></g><g
           transform="translate(878.3264,293.9194)"
           id="g52"><path
             id="path54"
             style="fill:currentColor;fill-opacity:1;fill-rule:nonzero;stroke:none"
             d="m 0,0 v -1.417 -99.297 -1.417 h 1.418 20.204 1.417 v 1.417 V -1.417 0 L 21.622,0 H 1.418 Z" /></g><g
           transform="translate(986.9089,293.9059)"
           id="g56"><path
             id="path58"
             style="fill:currentColor;fill-opacity:1;fill-rule:nonzero;stroke:none"
             d="M 0,0 H -1.417 V -1.417 -40.133 H -45.723 V -1.417 0 h -1.418 -20.204 -1.417 v -1.417 -99.284 -1.417 h 1.417 20.204 1.418 v 1.417 40.953 h 44.306 v -40.953 -1.417 H 0 20.058 21.475 v 1.417 V -1.417 0 l -1.417,0 z" /></g><g
           transform="translate(1051.7738,232.9381)"
           id="g60"><path
             id="path62"
             style="fill:currentColor;fill-opacity:1;fill-rule:nonzero;stroke:none"
             d="M 0,0 12.846,33.562 25.189,0 Z m -14.944,-41.15 h 0.974 l 0.349,0.909 9.167,23.842 h 34.366 l 9.31,-23.849 0.352,-0.902 h 0.968 20.79 2.089 l -0.773,1.942 -39.528,99.283 -0.356,0.893 H 21.803 3.942 2.982 l -0.356,-0.892 -39.674,-99.283 -0.777,-1.943 h 2.093 z" /></g><g
           transform="translate(403.3518,132.6677)"
           id="g64"><path
             id="path66"
             style="fill:currentColor;fill-opacity:1;fill-rule:nonzero;stroke:none"
             d="m 0,0 36.648,47.084 1.781,2.288 H 35.53 12.692 11.997 L 11.571,48.823 -19.626,8.54 h -6.086 v 39.415 1.417 h -1.417 -20.058 -1.417 v -1.417 -99.284 -1.417 h 1.417 20.058 1.417 v 1.417 39.695 h 8.009 l 32.954,-40.588 0.425,-0.524 h 0.675 22.546 2.933 l -1.823,2.298 z" /></g><g
           transform="translate(495.9305,99.1169)"
           id="g68"><path
             id="path70"
             style="fill:currentColor;fill-opacity:1;fill-rule:nonzero;stroke:none"
             d="m 0,0 c -4.543,0 -8.641,0.891 -12.18,2.649 -3.567,1.769 -6.615,4.143 -9.061,7.054 -2.461,2.926 -4.37,6.348 -5.673,10.173 -1.31,3.836 -1.974,7.869 -1.974,11.988 0,3.928 0.64,7.848 1.904,11.649 1.257,3.781 3.12,7.206 5.538,10.181 2.399,2.952 5.444,5.367 9.052,7.178 3.592,1.802 7.762,2.716 12.394,2.716 4.446,0 8.499,-0.87 12.046,-2.585 3.558,-1.722 6.602,-4.07 9.049,-6.978 2.462,-2.93 4.397,-6.358 5.75,-10.188 1.355,-3.841 2.042,-7.87 2.042,-11.973 0,-3.93 -0.64,-7.85 -1.904,-11.648 C 25.727,16.437 23.84,12.989 21.375,9.967 18.924,6.964 15.875,4.524 12.314,2.713 8.775,0.913 4.633,0 0,0 m 37.787,67.225 c -4.493,4.865 -9.984,8.854 -16.318,11.856 -6.361,3.013 -13.485,4.541 -21.176,4.541 -7.483,0 -14.522,-1.428 -20.922,-4.245 -6.385,-2.812 -11.977,-6.656 -16.621,-11.426 -4.643,-4.768 -8.335,-10.324 -10.976,-16.513 -2.649,-6.208 -3.993,-12.794 -3.993,-19.574 0,-6.493 1.266,-12.929 3.763,-19.127 2.493,-6.198 6.061,-11.781 10.605,-16.595 4.545,-4.82 10.062,-8.737 16.398,-11.643 6.35,-2.915 13.519,-4.393 21.307,-4.393 7.485,0 14.524,1.428 20.92,4.245 6.381,2.809 11.949,6.629 16.549,11.355 4.591,4.722 8.235,10.233 10.83,16.379 2.6,6.163 3.919,12.723 3.919,19.5 0,6.393 -1.266,12.781 -3.763,18.987 -2.495,6.195 -6.035,11.798 -10.522,16.653" /></g><g
           transform="translate(649.7011,182.0397)"
           id="g72"><path
             id="path74"
             style="fill:currentColor;fill-opacity:1;fill-rule:nonzero;stroke:none"
             d="M 0,0 H -0.838 L -1.242,-0.735 -31.031,-54.956 -60.536,-0.74 -60.939,0 h -0.842 -21.668 -1.417 v -1.417 -99.284 -1.417 h 1.417 20.204 1.417 v 1.417 60.182 l 24.131,-44.082 0.403,-0.737 h 0.84 10.981 0.839 l 0.404,0.737 24.13,44.082 v -60.182 -1.417 h 1.418 20.203 1.417 v 1.417 V -1.417 0 l -1.417,0 z" /></g><g
           transform="translate(746.806,121.072)"
           id="g76"><path
             id="path78"
             style="fill:currentColor;fill-opacity:1;fill-rule:nonzero;stroke:none"
             d="m 0,0 h -25.189 l 12.846,33.562 z m -2.069,60.075 -0.356,0.893 h -0.961 -17.861 -0.96 l -0.356,-0.892 -39.674,-99.283 -0.777,-1.943 h 2.093 20.788 0.974 l 0.349,0.909 9.167,23.842 H 4.723 l 9.31,-23.849 0.352,-0.902 h 0.968 20.79 2.089 l -0.773,1.942 z" /></g><g
           transform="translate(864.9564,182.0397)"
           id="g80"><path
             id="path82"
             style="fill:currentColor;fill-opacity:1;fill-rule:nonzero;stroke:none"
             d="M 0,0 H -1.417 V -1.417 -40.133 H -45.723 V -1.417 0 h -1.418 -20.204 -1.417 v -1.417 -99.284 -1.417 h 1.417 20.204 1.418 v 1.417 40.953 h 44.306 v -40.953 -1.417 H 0 20.058 21.475 v 1.417 V -1.417 0 l -1.417,0 z" /></g><g
           transform="translate(966.3857,162.2852)"
           id="g84"><path
             id="path86"
             style="fill:currentColor;fill-opacity:1;fill-rule:nonzero;stroke:none"
             d="m 0,0 v -62.609 h -34.829 c 2.716,4.317 4.999,10.007 6.801,16.966 2.107,8.147 3.771,18.856 4.944,31.83 L -21.745,0 Z m 23.038,-62.609 v 80.946 1.418 h -1.417 -62.952 -1.29 l -0.121,-1.285 -2.636,-27.967 c -1.067,-11.003 -2.243,-20.115 -3.498,-27.08 -1.245,-6.907 -2.694,-12.384 -4.306,-16.279 -1.548,-3.737 -3.301,-6.303 -5.209,-7.628 -1.91,-1.328 -4.166,-2.043 -6.704,-2.125 h -3.613 -1.418 v -1.417 -41.671 -1.417 h 1.418 19.031 1.417 v 1.417 23.334 h 64.95 v -23.334 -1.417 h 1.417 18.886 1.417 v 1.417 41.671 1.417 h -1.417 z" /></g><g
           transform="translate(1076.9628,121.072)"
           id="g88"><path
             id="path90"
             style="fill:currentColor;fill-opacity:1;fill-rule:nonzero;stroke:none"
             d="m 0,0 h -25.189 l 12.846,33.562 z m -2.069,60.075 -0.356,0.893 h -0.961 -17.861 -0.96 l -0.356,-0.892 -39.674,-99.283 -0.777,-1.943 h 2.093 20.788 0.974 l 0.349,0.909 9.167,23.842 H 4.723 l 9.31,-23.849 0.352,-0.902 h 0.968 20.79 2.089 l -0.773,1.942 z" /></g><g
           transform="translate(884.2272,302.7544)"
           id="g92"><path
             id="path94"
             style="fill:currentColor;fill-opacity:1;fill-rule:nonzero;stroke:none"
             d="M 0,0 H 1.351 V 1.352 15.649 17 H 0 -14.298 -15.649 V 15.649 1.352 0 h 1.351 z" /></g><g
           transform="translate(909.7632,302.7544)"
           id="g96"><path
             id="path98"
             style="fill:currentColor;fill-opacity:1;fill-rule:nonzero;stroke:none"
             d="M 0,0 H 1.351 V 1.352 15.649 17 H 0 -14.298 -15.649 V 15.649 1.352 0 h 1.351 z" /></g><g
           transform="translate(863.8702,277.8887)"
           id="g100"><path
             id="path102"
             style="fill:currentColor;fill-opacity:1;fill-rule:nonzero;stroke:none"
             d="M 0,0 -12.968,-11.209 V 16.045 H 0 Z" /></g></g></g></g></svg>