<svg width="253" height="262" viewBox="0 0 253 262" fill="none" xmlns="http://www.w3.org/2000/svg">
<ellipse opacity="0.5" cx="124.392" cy="223.421" rx="95" ry="22" transform="rotate(10.1654 124.392 223.421)" fill="black" fill-opacity="0.54"/>
<g filter="url(#filter0_f_4746_22705)">
<ellipse cx="70.1595" cy="208.382" rx="18.4547" ry="11.3024" transform="rotate(10.1654 70.1595 208.382)" fill="black" fill-opacity="0.65"/>
</g>
<g filter="url(#filter1_f_4746_22705)">
<ellipse cx="139.472" cy="230.241" rx="19.5454" ry="9.94763" transform="rotate(10.1654 139.472 230.241)" fill="black" fill-opacity="0.64"/>
</g>
<g filter="url(#filter2_f_4746_22705)">
<ellipse cx="185.5" cy="233.125" rx="17.1285" ry="9.2939" transform="rotate(10.1654 185.5 233.125)" fill="black" fill-opacity="0.64"/>
</g>
<g filter="url(#filter3_f_4746_22705)">
<ellipse cx="122.5" cy="211.171" rx="17.1285" ry="9.2939" transform="rotate(10.1654 122.5 211.171)" fill="black" fill-opacity="0.54"/>
</g>
<path d="M241.225 95.196C241.225 95.196 227.653 40.7284 220.194 40.9507C214.793 41.113 196.977 68.1521 196.977 68.1521" fill="#FCFCFC"/>
<path d="M241.225 95.196C241.225 95.196 227.653 40.7284 220.194 40.9507C214.793 41.113 196.977 68.1521 196.977 68.1521" stroke="black" stroke-width="1.99928" stroke-miterlimit="10" stroke-linecap="round" stroke-linejoin="round"/>
<path d="M220.034 42.375C221.107 48.319 222.269 57.9718 223.131 66.3954L220.034 42.375Z" fill="#FCFCFC"/>
<path d="M220.034 42.375C221.107 48.319 222.269 57.9718 223.131 66.3954" stroke="black" stroke-width="1.99928" stroke-miterlimit="10" stroke-linecap="round" stroke-linejoin="round"/>
<path opacity="0.14" d="M220.066 41.051C225.499 40.2336 235.217 70.1955 241.315 95.7158C234.291 95.122 221.968 88.6276 223.093 77.3209C224.259 65.6947 219.699 40.8744 220.066 41.051Z" fill="black"/>
<path d="M188.068 64.8675C188.068 64.8675 145.692 33.4137 141.762 38.0551C137.391 43.2201 144.804 84.0754 144.804 84.0754" fill="#F9F9F9"/>
<path d="M188.068 64.8675C188.068 64.8675 145.692 33.4137 141.762 38.0551C137.391 43.2201 144.804 84.0754 144.804 84.0754" stroke="black" stroke-width="1.99928" stroke-miterlimit="10" stroke-linecap="round" stroke-linejoin="round"/>
<path d="M143.791 38.0164C147.122 39.6014 158.952 52.6301 161.409 55.9924" stroke="black" stroke-width="1.99928" stroke-miterlimit="10" stroke-linecap="round" stroke-linejoin="round"/>
<path opacity="0.14" d="M143.43 38.0807C147.696 36.7147 187.309 64.3991 187.309 64.3991C187.309 64.3991 179.704 84.0437 173.531 73.3614C161.189 52.0232 153.472 47.9703 143.43 38.0807Z" fill="black"/>
<path d="M115.609 151.072C105.802 169.982 108.426 202.195 107.841 205.989C107.256 209.782 115.861 216.424 120.183 214.749C123.607 216.898 126.706 217.65 129.433 216.981C137.343 221.621 148.33 210.968 136.324 202.31C137.082 192.773 141.048 179.221 147.773 170.295" fill="#DBDBDB"/>
<path d="M115.609 151.072C105.802 169.982 108.426 202.195 107.841 205.989C107.256 209.782 115.861 216.424 120.183 214.749C123.607 216.898 126.706 217.65 129.433 216.981C137.343 221.621 148.33 210.968 136.324 202.31C137.082 192.773 141.048 179.221 147.773 170.295" stroke="black" stroke-width="1.99928" stroke-miterlimit="10" stroke-linecap="round" stroke-linejoin="round"/>
<path d="M211.954 164.573C207.232 178.969 195.885 218.888 197.83 222.403C201.328 225.068 202.288 230.36 201.565 232.881C200.818 235.501 199.518 239.039 192.737 238.088C190.284 238.653 187.478 238.555 183.694 237.02C177.559 237.661 169.755 236.844 170.512 223.809C171.368 208.962 167.728 197.642 173.825 186.561" fill="#DBDBDB"/>
<path d="M211.954 164.573C207.232 178.969 195.885 218.888 197.83 222.403C201.328 225.068 202.288 230.36 201.565 232.881C200.818 235.501 199.518 239.039 192.737 238.088C190.284 238.653 187.478 238.555 183.694 237.02C177.559 237.661 169.755 236.844 170.512 223.809C171.368 208.962 167.728 197.642 173.825 186.561" stroke="black" stroke-width="1.99928" stroke-miterlimit="10" stroke-linecap="round" stroke-linejoin="round"/>
<path d="M185.026 229.775C186.781 232.626 185.39 235.086 183.737 236.581" stroke="black" stroke-width="1.99928" stroke-miterlimit="10" stroke-linecap="round" stroke-linejoin="round"/>
<path d="M194.946 229.82C196.08 233.364 194.503 236.868 192.729 238.086" stroke="black" stroke-width="1.99928" stroke-miterlimit="10" stroke-linecap="round" stroke-linejoin="round"/>
<path d="M197.83 222.403C193.94 221.22 189.534 220.713 184.941 221.479" stroke="black" stroke-width="1.99928" stroke-miterlimit="10" stroke-linecap="round" stroke-linejoin="round"/>
<path d="M87.4729 113.616C76.2973 90.554 60.9175 49.7655 82.2565 8.59983C40.0553 -6.63148 -9.38678 33.0241 68.3028 116.895" fill="#FCFCFC"/>
<path d="M87.4729 113.616C76.2973 90.554 60.9175 49.7655 82.2565 8.59983C40.0553 -6.63148 -9.38678 33.0241 68.3028 116.895" stroke="black" stroke-width="1.99928" stroke-miterlimit="10" stroke-linecap="round" stroke-linejoin="round"/>
<path opacity="0.1362" d="M81.5779 8.99257C55.4135 11.9823 55.105 52.3164 65.8281 78.5923C76.3716 104.42 82.3241 112.917 84.0246 113.899C84.0246 113.899 100.489 130.291 91.1675 115.283C81.846 100.274 74.2653 74.9713 71.6093 53.8739C69.4457 36.7019 81.5779 8.99257 81.5779 8.99257Z" fill="#020202"/>
<path d="M89.5024 165.43C82.9794 173.71 79.1591 186.205 80.1186 195.723C93.0416 201.882 84.3175 216.879 76.1043 213.872C73.5438 215.021 70.3581 214.83 66.6103 213.335C62.6528 215.761 53.3269 210.74 52.893 206.935C51.9982 199.055 51.5324 188.78 52.0821 175.199C52.8186 156.956 48.5447 146.858 54.9521 127.089C60.1164 111.158 74.7801 99.8453 90.0777 98.7732C102.733 97.8771 126.679 99.2695 138.083 99.8779L188.64 102.945" fill="#FCFCFC"/>
<path d="M89.5024 165.43C82.9794 173.71 79.1591 186.205 80.1186 195.723C93.0416 201.882 84.3175 216.879 76.1043 213.872C73.5438 215.021 70.3581 214.83 66.6103 213.335C62.6528 215.761 53.3269 210.74 52.893 206.935C51.9982 199.055 51.5324 188.78 52.0821 175.199C52.8186 156.956 48.5447 146.858 54.9521 127.089C60.1164 111.158 74.7801 99.8453 90.0777 98.7732C102.733 97.8771 126.679 99.2695 138.083 99.8779L188.64 102.945" stroke="black" stroke-width="1.99928" stroke-miterlimit="10" stroke-linecap="round" stroke-linejoin="round"/>
<path d="M65.6797 202.741C69.0298 204.98 69.3543 210.663 66.6176 213.345" stroke="black" stroke-width="1.99928" stroke-miterlimit="10" stroke-linecap="round" stroke-linejoin="round"/>
<path d="M76.9072 203.485C80.4253 206.248 79.3668 211.503 76.1109 213.882" stroke="black" stroke-width="1.99928" stroke-miterlimit="10" stroke-linecap="round" stroke-linejoin="round"/>
<path d="M67.8366 195.305C72.9849 194.333 77.0487 194.667 80.1266 195.725" stroke="black" stroke-width="1.99928" stroke-miterlimit="10" stroke-linecap="round" stroke-linejoin="round"/>
<path d="M143.062 117.244C137.41 110.414 135.003 99.7723 135.272 94.4639C136.34 73.0144 151.943 65.0105 164.762 61.7732C179.802 57.978 199.013 60.1068 216.404 68.7111C222.808 71.8843 243.042 82.1701 241.896 105.245C238.387 123.232 227.858 141.483 224.478 147.949C217.094 162.09 208.303 176.802 188.717 189.731C177.726 194.347 162.176 197.558 144.83 194.345C100.993 186.217 95.8257 174.91 75.9155 167.692" fill="#FCFCFC"/>
<path d="M143.062 117.244C137.41 110.414 135.003 99.7723 135.272 94.4639C136.34 73.0144 151.943 65.0105 164.762 61.7732C179.802 57.978 199.013 60.1068 216.404 68.7111C222.808 71.8843 243.042 82.1701 241.896 105.245C238.387 123.232 227.858 141.483 224.478 147.949C217.094 162.09 208.303 176.802 188.717 189.731C177.726 194.347 162.176 197.558 144.83 194.345C100.993 186.217 95.8257 174.91 75.9155 167.692" stroke="black" stroke-width="1.99928" stroke-miterlimit="10" stroke-linecap="round" stroke-linejoin="round"/>
<path d="M147.645 121.328C162.594 134.812 187.01 143.89 217.147 129.647" stroke="black" stroke-width="1.99928" stroke-miterlimit="10" stroke-linecap="round" stroke-linejoin="round"/>
<path opacity="0.14" d="M142.285 115.444C141.751 127.305 150.096 133.52 160.331 139.427C168.81 144.326 173.336 149.894 174.689 154.466C176.617 160.988 171.097 171.103 163.771 175.358C154.759 180.596 126.741 182.76 115.734 178.801C110.527 176.927 89.3624 172.396 84.6718 164.446C82.5519 160.844 76.6583 143.62 72.9876 153.086C67.9407 166.086 72.3121 167.205 71.8894 172.953C71.4 179.634 69.8985 186.372 69.2945 192.795C68.7991 198.069 71.0648 201.059 77.1546 203.823C81.2818 205.694 76.768 214.567 78.6227 214.604C83.4274 214.693 94.2094 203.922 80.3632 194.964C78.9851 182.766 83.5827 173.795 84.4575 171.4C95.6878 178.807 115.286 187.768 120.272 189.188C130.168 192.008 154.725 195.947 172.693 194.017C191.27 192.027 207.51 178.103 219.198 156.67C230.895 135.238 240.704 118.539 241.895 105.245C243.613 86.2018 226.125 71.8895 211.747 66.7675C191.99 59.7275 179.591 57.6196 164.763 61.7648C190.993 63.2434 197.682 64.1284 210.709 71.4431C220.218 76.7836 232.334 94.4606 227.357 107.9C224.48 115.662 213.325 128.629 190.44 129.646C174.202 130.368 159.041 126.102 142.285 115.444Z" fill="#020202"/>
<path d="M160.221 175.857C154.342 190.366 150.682 217.006 151.889 219.636C156.756 223.155 156.276 229.443 155.568 232.034C154.378 236.42 150.253 237.594 145.858 236.574C141.763 237.331 138.646 236.971 134.382 235.268C128.281 235.58 120.77 233.633 121.906 221.145C123.461 203.929 117.355 170.837 125.129 152.496" fill="#FCFCFC"/>
<path d="M160.221 175.857C154.342 190.366 150.682 217.006 151.889 219.636C156.756 223.155 156.276 229.443 155.568 232.034C154.378 236.42 150.253 237.594 145.858 236.574C141.763 237.331 138.646 236.971 134.382 235.268C128.281 235.58 120.77 233.633 121.906 221.145C123.461 203.929 117.355 170.837 125.129 152.496" stroke="black" stroke-width="1.99928" stroke-miterlimit="10" stroke-linecap="round" stroke-linejoin="round"/>
<path d="M137.048 226.925C138.715 229.848 138.218 233.913 134.372 235.275" stroke="black" stroke-width="1.99928" stroke-miterlimit="10" stroke-linecap="round" stroke-linejoin="round"/>
<path d="M146.535 236.515C149.163 234.262 149.943 230.816 148.499 227.832" stroke="black" stroke-width="1.99928" stroke-miterlimit="10" stroke-linecap="round" stroke-linejoin="round"/>
<path d="M139.706 217.964C143.078 217.729 147.238 217.719 151.879 219.643" stroke="black" stroke-width="1.99928" stroke-miterlimit="10" stroke-linecap="round" stroke-linejoin="round"/>
<path d="M182.368 89.564C188.525 88.2751 207.124 83.6909 220.166 90.9135" stroke="black" stroke-width="1.99928" stroke-miterlimit="10" stroke-linecap="round" stroke-linejoin="round"/>
<path d="M186.731 90.2363C187.851 92.6467 188.971 95.0571 192.27 97.7946C202.855 91.9753 212.543 91.9765 219.101 92.987" stroke="black" stroke-width="1.99928" stroke-miterlimit="10" stroke-linecap="round" stroke-linejoin="round"/>
<path d="M145.02 75.6121C150.12 76.398 164.226 81.5554 170.719 87.7688C169.911 83.9405 169.841 82.2236 169.767 79.4257" stroke="black" stroke-width="1.99928" stroke-miterlimit="10" stroke-linecap="round" stroke-linejoin="round"/>
<path d="M148.55 77.0136C144.168 83.5231 145.143 93.2758 152.084 96.5831C159.025 99.8904 167.915 96.2791 169.765 89.1138" stroke="black" stroke-width="1.99928" stroke-miterlimit="10" stroke-linecap="round" stroke-linejoin="round"/>
<path d="M173.351 97.1167C172.519 105.236 175.38 111.379 183.814 112.893C191.632 114.295 200.226 112.044 203.83 106.461" stroke="black" stroke-width="1.99928" stroke-miterlimit="10" stroke-linecap="round" stroke-linejoin="round"/>
<path d="M172.863 98.9448C171.353 104.628 168.797 106.137 164.14 107.537" stroke="black" stroke-width="1.99928" stroke-miterlimit="10" stroke-linecap="round" stroke-linejoin="round"/>
<path d="M165.202 107.487C166.152 112.28 168.313 114.731 172.742 117.531" stroke="black" stroke-width="1.99928" stroke-miterlimit="10" stroke-linecap="round" stroke-linejoin="round"/>
<path d="M167.991 90.5551L180.208 91.3319C180.327 91.3416 180.404 91.4563 180.379 91.5638C180.051 92.6879 178.332 97.7216 173.691 97.3493C168.865 96.957 167.94 91.8848 167.796 90.765C167.78 90.6426 167.872 90.5454 167.991 90.5551Z" fill="black"/>
<path d="M155.476 84.5368C155.775 81.985 157.07 79.6983 159.765 80.1822C161.299 80.4615 162.669 82.4216 161.991 85.6523C161.649 87.2628 160.58 90.3046 157.788 89.7801C155.529 89.3634 155.295 86.0951 155.476 84.5368Z" fill="black"/>
<path d="M205.895 88.0025C206.168 90.1279 205.396 93.5756 203.475 93.914C201.201 94.318 199.512 92.7031 199.362 89.7821C199.126 85.3047 200.489 86.5864 202.149 86.2164C203.81 85.8463 205.644 86.0175 205.895 88.0025Z" fill="black"/>
<path d="M167.036 133.525C170.345 140.096 180.813 145.156 180.813 145.156" stroke="black" stroke-width="1.33285" stroke-miterlimit="10" stroke-linecap="round" stroke-linejoin="round"/>
<path d="M208.226 139.238C204.763 143.797 198.072 146.212 198.072 146.212" stroke="black" stroke-width="1.33285" stroke-miterlimit="10" stroke-linecap="round" stroke-linejoin="round"/>
<path d="M184.717 147.867L182.956 147.775L182.865 149.536L184.626 149.627L184.717 147.867Z" fill="#000001"/>
<path d="M179.107 152.832L187.914 153.375L188.457 144.568L179.65 144.025L179.107 152.832ZM186.268 151.321L181.163 151.006L181.478 145.902L186.583 146.217L186.268 151.321Z" fill="#000001"/>
<path d="M195.292 148.339L193.531 148.248L193.44 150.008L195.201 150.1L195.292 148.339Z" fill="#000001"/>
<path d="M189.683 153.305L198.49 153.847L199.033 145.04L190.226 144.498L189.683 153.305ZM196.833 151.972L191.729 151.657L192.044 146.552L197.148 146.867L196.833 151.972Z" fill="#000001"/>
<path d="M184.065 158.44L182.304 158.349L182.213 160.11L183.973 160.201L184.065 158.44Z" fill="#000001"/>
<path d="M198.057 160.888L196.296 160.797L196.205 162.557L197.966 162.649L198.057 160.888Z" fill="#000001"/>
<path d="M191.186 160.464L189.425 160.372L189.334 162.133L191.094 162.224L191.186 160.464Z" fill="#000001"/>
<path d="M194.723 157.322L192.962 157.231L192.679 162.52L194.439 162.611L194.723 157.322Z" fill="#000001"/>
<path d="M191.502 155.359L189.741 155.268L189.65 157.029L191.411 157.12L191.502 155.359Z" fill="#000001"/>
<path d="M178.627 163.406L187.434 163.949L187.977 155.142L179.169 154.599L178.627 163.406ZM185.616 161.894L180.511 161.579L180.827 156.475L185.931 156.79L185.616 161.894Z" fill="#000001"/>
<path d="M198.374 155.604L196.614 155.513L196.421 159.213L198.181 159.304L198.374 155.604Z" fill="#000001"/>
<path d="M197.954 162.441L189.322 161.986L189.231 163.746L197.863 164.202L197.954 162.441Z" fill="#000001"/>
<path opacity="0.1434" d="M146.148 169.041C145.938 179.417 145.307 190.303 143.857 201.268C142.094 214.654 141.633 213.365 140.951 218.567C146.302 220.121 148.114 225.776 148.63 227.21C149.444 229.496 150.292 231.89 147.959 235.963C151.516 237.188 155.374 237.911 157.043 229.312C157.808 225.349 155.029 221.903 152.055 219.061C152.798 203.169 157.164 185.571 159.698 175.75C164.253 168.668 146.41 156.273 146.148 169.041Z" fill="#020202"/>
<defs>
<filter id="filter0_f_4746_22705" x="50.8838" y="195.787" width="38.5518" height="25.1899" filterUnits="userSpaceOnUse" color-interpolation-filters="sRGB">
<feFlood flood-opacity="0" result="BackgroundImageFix"/>
<feBlend mode="normal" in="SourceGraphic" in2="BackgroundImageFix" result="shape"/>
<feGaussianBlur stdDeviation="0.5" result="effect1_foregroundBlur_4746_22705"/>
</filter>
<filter id="filter1_f_4746_22705" x="119.152" y="218.857" width="40.6396" height="22.7683" filterUnits="userSpaceOnUse" color-interpolation-filters="sRGB">
<feFlood flood-opacity="0" result="BackgroundImageFix"/>
<feBlend mode="normal" in="SourceGraphic" in2="BackgroundImageFix" result="shape"/>
<feGaussianBlur stdDeviation="0.5" result="effect1_foregroundBlur_4746_22705"/>
</filter>
<filter id="filter2_f_4746_22705" x="167.56" y="222.488" width="35.8809" height="21.2742" filterUnits="userSpaceOnUse" color-interpolation-filters="sRGB">
<feFlood flood-opacity="0" result="BackgroundImageFix"/>
<feBlend mode="normal" in="SourceGraphic" in2="BackgroundImageFix" result="shape"/>
<feGaussianBlur stdDeviation="0.5" result="effect1_foregroundBlur_4746_22705"/>
</filter>
<filter id="filter3_f_4746_22705" x="104.56" y="200.534" width="35.8809" height="21.2742" filterUnits="userSpaceOnUse" color-interpolation-filters="sRGB">
<feFlood flood-opacity="0" result="BackgroundImageFix"/>
<feBlend mode="normal" in="SourceGraphic" in2="BackgroundImageFix" result="shape"/>
<feGaussianBlur stdDeviation="0.5" result="effect1_foregroundBlur_4746_22705"/>
</filter>
</defs>
</svg>
